<svg width="27" height="27" viewBox="0 0 27 27" fill="none" xmlns="http://www.w3.org/2000/svg">
<g id="&#208;&#155;&#208;&#184;&#209;&#135;&#208;&#189;&#209;&#139;&#208;&#185; &#208;&#186;&#208;&#176;&#208;&#177;&#208;&#184;&#208;&#189;&#208;&#181;&#209;&#130;">
<path id="Vector" d="M13.5 0C17.8693 0 21.4114 3.3844 21.4114 7.55927C21.4114 11.7341 17.8693 15.1185 13.5 15.1185C9.1306 15.1185 5.58854 11.7341 5.58854 7.55927C5.59386 3.38645 9.13276 0.00510578 13.4995 0H13.5ZM13.5 12.8721C16.5709 12.8721 19.0603 10.4935 19.0603 7.5593C19.0603 4.62512 16.5709 2.24647 13.5 2.24647C10.4291 2.24647 7.93964 4.6251 7.93964 7.55927C7.94299 10.4922 10.4304 12.8689 13.4997 12.8721H13.4999L13.5 12.8721ZM24.6865 26.0116L24.2516 23.7067C23.2872 18.803 18.8412 15.1422 13.5001 15.1411H13.4994C8.16306 15.1411 3.71973 18.7942 2.75915 23.6259L2.74839 23.691L2.31465 25.9891L0 25.587L0.434935 23.2844C1.61468 17.3339 7.01389 12.8946 13.4982 12.8946H13.5001H13.5C19.9906 12.8962 25.3931 17.3454 26.551 23.2258L26.5639 23.3046L27 25.6128L24.6865 26.0116Z" fill="black"/>
</g>
</svg>
