<svg width="28" height="26" viewBox="0 0 28 26" fill="none" xmlns="http://www.w3.org/2000/svg">
<g id="&#208;&#159;&#208;&#190;&#208;&#184;&#209;&#129;&#208;&#186; &#208;&#189;&#208;&#176; &#209;&#129;&#208;&#176;&#208;&#185;&#209;&#130;&#208;&#181;">
<path id="Vector" d="M10.3538 2.53767e-05C16.0721 2.53767e-05 20.7077 4.42926 20.7077 9.89297C20.7077 15.3567 16.0721 19.786 10.3539 19.786C4.63555 19.786 0 15.3567 0 9.89302C0.00680281 4.43188 4.63832 0.00649999 10.3532 0H10.3539L10.3538 2.53767e-05ZM10.3538 17.4959C14.7485 17.4959 18.311 14.092 18.311 9.89297C18.311 5.69394 14.7485 2.29008 10.3538 2.29008C5.95923 2.29008 2.39671 5.69402 2.39671 9.89304C2.40216 14.0899 5.96144 17.4907 10.3533 17.496H10.3539L10.3538 17.4959ZM25.5132 26L15.798 16.7139L17.4925 15.0948L27.2112 24.3775L25.5132 26Z" fill="black"/>
</g>
</svg>
