<svg width="27" height="26" viewBox="0 0 27 26" fill="none" xmlns="http://www.w3.org/2000/svg">
<path id="&#208;&#154;&#208;&#190;&#209;&#128;&#208;&#183;&#208;&#184;&#208;&#189;&#208;&#176;" d="M11.2339 19.36C13.0989 19.3751 14.599 20.8487 14.5844 22.6514C14.5698 24.454 13.0461 25.9032 11.181 25.8881C9.316 25.8729 7.81594 24.3993 7.83055 22.5967C7.84515 20.794 9.36886 19.3449 11.2339 19.36ZM11.1992 23.6448C11.7824 23.6495 12.2589 23.1963 12.2635 22.6326C12.268 22.0689 11.7989 21.608 11.2157 21.6033C10.6325 21.5986 10.156 22.0518 10.1514 22.6155C10.1469 23.1792 10.616 23.64 11.1992 23.6448ZM21.2022 19.4407C23.0672 19.4558 24.5673 20.9294 24.5527 22.7321C24.5381 24.5348 23.0143 25.9839 21.1493 25.9688C19.2843 25.9537 17.7842 24.4801 17.7988 22.6774C17.8134 20.8747 19.3372 19.4256 21.2022 19.4407L21.2022 19.4407ZM21.1675 23.7255C21.7507 23.7302 22.2272 23.2771 22.2318 22.7133C22.2363 22.1496 21.7672 21.6888 21.184 21.6841C20.6008 21.6793 20.1243 22.1325 20.1197 22.6962C20.1151 23.26 20.5842 23.7208 21.1675 23.7255ZM21.1608 21.6839L9.55537 21.5899C7.38591 21.5723 5.641 19.8581 5.65799 17.7612C5.67224 16.0024 6.92147 14.5329 8.60412 14.1151L8.63154 14.1093L5.43703 3.74328C5.15801 2.88836 4.34864 2.27616 3.38799 2.26837L0.289444 2.24327L0.307617 0L3.41195 0.0251483C5.4041 0.0412867 7.08187 1.31349 7.64694 3.05755L7.6555 3.08823L7.65541 3.09944L11.7105 16.2567L9.59963 16.2396C8.71199 16.2324 7.98675 16.9221 7.9798 17.7801C7.97285 18.6381 8.68679 19.3394 9.57446 19.3466L21.179 19.4406L21.1608 21.6839ZM24.3188 16.3587L10.145 16.2439L10.1631 14.0006L22.587 14.1013L24.5709 7.58882L24.5779 6.72518L8.01818 6.59103L8.03635 4.34769L26.917 4.50064L26.8893 7.92169L24.3188 16.3587Z" fill="black"/>
</svg>
