<svg xmlns="http://www.w3.org/2000/svg" xml:space="preserve" id="Layer_1" width="135" height="135" x="0" y="0" style="enable-background:new 0 0 135 135" version="1.1"><style>.st180{fill:#fff800}.st205{fill:#33363a}</style><path d="M67.5 26.864a3 3 0 0 1-3-3V6.528a3 3 0 1 1 6 0v17.336a3 3 0 0 1-3 3z" class="st205"/><path d="M64.322 29.829a2.996 2.996 0 0 1-2.497-1.333L52.189 14.08a3 3 0 1 1 4.988-3.334l9.636 14.416a3 3 0 0 1-2.491 4.667zM70.678 29.829a3 3 0 0 1-2.491-4.667l9.636-14.416a2.999 2.999 0 1 1 4.988 3.334l-9.636 14.416a2.998 2.998 0 0 1-2.497 1.333z" class="st205"/><path d="M116.709 73.038c0 20.676-22.032 37.441-49.209 37.441-27.178 0-49.209-16.766-49.209-37.441 0-20.68 22.031-45.459 49.209-45.459 27.177 0 49.209 24.779 49.209 45.459z" class="st180"/><path d="M116.709 73.038c0 20.676-22.032 37.441-49.209 37.441-27.178 0-49.209-16.766-49.209-37.441 0-20.68 22.031-34.928 49.209-34.928 27.177 0 49.209 14.248 49.209 34.928z" style="fill:#ffd400"/><path d="M77.979 61.896c0 1.395-4.691 1.645-10.479 1.645s-10.479-.25-10.479-1.645c0-1.393 4.691-5.035 10.479-5.035s10.479 3.642 10.479 5.035z" class="st180"/><path d="M116.709 73.038c0 20.676-22.032 37.441-49.209 37.441-27.178 0-49.209-16.766-49.209-37.441 0-20.682 6.261 18.34 49.209 18.34s49.209-39.022 49.209-18.34z" style="fill:#ffb000"/><path d="M67.5 111.979c-27.961 0-50.709-17.469-50.709-38.941 0-21.27 22.619-46.959 50.709-46.959 13.041 0 25.772 5.472 35.849 15.406 9.305 9.174 14.86 20.97 14.86 31.553 0 21.473-22.748 38.941-50.709 38.941zm0-82.9c-26.428 0-47.709 24.048-47.709 43.959 0 19.818 21.402 35.941 47.709 35.941s47.709-16.123 47.709-35.941c0-19.911-21.281-43.959-47.709-43.959z" class="st205"/><path d="M51.338 64.351a1.5 1.5 0 0 1-1.5-1.5c0-.87-2.487-2.469-6.552-2.469-4.063 0-6.551 1.599-6.551 2.469a1.5 1.5 0 0 1-3 0c0-3.118 4.105-5.469 9.551-5.469s9.552 2.351 9.552 5.469a1.5 1.5 0 0 1-1.5 1.5zM99.765 64.351a1.5 1.5 0 0 1-1.5-1.5c0-.87-2.487-2.469-6.551-2.469s-6.552 1.599-6.552 2.469a1.5 1.5 0 0 1-3 0c0-3.118 4.106-5.469 9.552-5.469s9.551 2.351 9.551 5.469a1.5 1.5 0 0 1-1.5 1.5z" class="st205"/><path d="M106.914 105.286c0-12.697-11.573-16.83-20.176-23.713C72.346 69.19 77.075 61.3 68.098 60.685v-.043c-.209 0-.401.008-.598.014-.196-.006-.389-.014-.598-.014v.043c-8.978.615-4.248 8.506-18.641 20.889-8.603 6.883-20.176 11.016-20.176 23.713 0 20.506 20.319 22.297 38.816 23.145v.041c.198 0 .398-.016.598-.02.199.004.399.02.598.02v-.041c18.498-.849 38.817-2.64 38.817-23.146z" style="fill:#fff4c7"/><path d="M106.329 105.442c-2.446-11.707-12.133-12.502-19.591-18.469-14.393-12.383-9.663-20.271-18.641-20.889v-.043c-.209 0-.401.01-.598.016-.196-.006-.389-.016-.598-.016v.043c-8.978.617-4.248 8.506-18.641 20.889-7.458 5.967-17.145 6.762-19.591 18.469 3.435 15.287 21.568 16.822 38.231 17.588v.041c.198 0 .398-.016.598-.021.199.006.399.021.598.021v-.041c16.665-.765 34.799-2.301 38.233-17.588z" style="fill:#e0d5a4"/><path d="M68.098 129.972c-.136 0-.271-.006-.408-.012l-.219-.008-.16.008c-.282.013-.568.027-.824-.047-16.027-.735-39.9-1.992-39.9-24.627 0-10.637 7.495-15.701 14.743-20.599 2.02-1.364 4.107-2.774 5.995-4.285 6.861-5.905 9.193-10.729 10.896-14.253 1.74-3.601 3.123-6.462 8.226-6.933.31-.104.664-.075.984-.064l.114.004.024-.004c.327-.011.688-.038 1.003.065 5.087.477 6.469 3.335 8.207 6.932 1.703 3.523 4.035 8.348 10.938 14.287 1.847 1.477 3.935 2.887 5.954 4.251 7.248 4.897 14.743 9.962 14.743 20.599 0 22.64-23.886 23.892-39.913 24.628a1.454 1.454 0 0 1-.403.058zm-.627-3.02.321.01c.077-.016.156-.026.237-.029 20.454-.938 37.385-3.214 37.385-21.646 0-9.043-6.52-13.448-13.423-18.112-2.068-1.397-4.207-2.843-6.19-4.43-7.416-6.379-10.008-11.741-11.723-15.289-1.717-3.553-2.428-5.023-6.083-5.274a1.579 1.579 0 0 1-.229-.033l-.101.003-.12.004-.21-.004-.105-.003a1.37 1.37 0 0 1-.225.033c-3.655.251-4.366 1.722-6.083 5.274-1.715 3.548-4.307 8.91-11.682 15.255-2.024 1.621-4.163 3.066-6.231 4.464-6.903 4.664-13.423 9.069-13.423 18.112 0 18.433 16.931 20.709 37.385 21.646.081.003.16.014.237.029l.263-.01z" class="st205"/><path d="M63.355 79.741c-.573 0-1.12-.33-1.37-.887l-1.102-2.457a1.5 1.5 0 1 1 2.738-1.226l1.102 2.457a1.5 1.5 0 0 1-1.368 2.113zM71.645 79.741c-.205 0-.413-.042-.612-.131-.756-.339-1.095-1.227-.756-1.982l1.102-2.457c.34-.756 1.227-1.093 1.982-.756.756.339 1.095 1.227.756 1.982l-1.102 2.457c-.25.557-.797.887-1.37.887z" class="st205"/></svg>